<?xml version="1.0" encoding="UTF-8"?>
<svg xmlns="http://www.w3.org/2000/svg" version="1.1" xmlns:xlink="http://www.w3.org/1999/xlink" viewBox="0 0 1080 1080">
  <defs>
    <style>
      .cls-1 {
        fill: url(#Degradado_sin_nombre_6);
      }

      .cls-2 {
        fill: url(#Degradado_sin_nombre_5);
      }

      .cls-3 {
        fill: url(#Degradado_sin_nombre_19);
      }

      .cls-4 {
        fill: url(#Degradado_sin_nombre_11);
      }

      .cls-5, .cls-6 {
        fill: #fff;
      }

      .cls-7 {
        fill: url(#Degradado_sin_nombre_19-5);
      }

      .cls-8 {
        fill: url(#Degradado_sin_nombre_4);
      }

      .cls-9 {
        fill: url(#Degradado_sin_nombre_19-2);
      }

      .cls-10 {
        fill: url(#Degradado_sin_nombre_3-2);
      }

      .cls-11 {
        fill: url(#Degradado_sin_nombre_2);
      }

      .cls-12 {
        fill: url(#Degradado_sin_nombre_9);
      }

      .cls-13 {
        fill: url(#Degradado_sin_nombre_7);
      }

      .cls-14 {
        fill: #0711a3;
      }

      .cls-15 {
        fill: url(#Degradado_sin_nombre_19-4);
      }

      .cls-6 {
        opacity: .1;
      }

      .cls-16 {
        fill: #db47f0;
      }

      .cls-17 {
        fill: #009bab;
      }

      .cls-18 {
        fill: url(#Degradado_sin_nombre_3);
      }

      .cls-19 {
        fill: url(#Degradado_sin_nombre_19-3);
      }

      .cls-20 {
        fill: url(#Degradado_sin_nombre_10);
      }

      .cls-21 {
        fill: #1c34ed;
      }

      .cls-22 {
        fill: url(#Degradado_sin_nombre_5-2);
      }

      .cls-23 {
        fill: url(#Degradado_sin_nombre_8);
      }

      .cls-24 {
        fill: url(#Degradado_sin_nombre_2-2);
      }

      .cls-25 {
        fill: #9525f8;
      }

      .cls-26 {
        fill: url(#Degradado_sin_nombre_12);
      }
    </style>
    <linearGradient id="Degradado_sin_nombre_19" data-name="Degradado sin nombre 19" x1="767.4" y1="568.5" x2="473.9" y2="858.1" gradientUnits="userSpaceOnUse">
      <stop offset=".1" stop-color="#b114cc"/>
      <stop offset=".4" stop-color="#3028d5"/>
      <stop offset=".7" stop-color="#0098aa"/>
      <stop offset="1" stop-color="#35e7d9"/>
    </linearGradient>
    <linearGradient id="Degradado_sin_nombre_19-2" data-name="Degradado sin nombre 19" x1="371.4" y1="690.8" x2="904" y2="344.8" xlink:href="#Degradado_sin_nombre_19"/>
    <linearGradient id="Degradado_sin_nombre_19-3" data-name="Degradado sin nombre 19" x1="220.1" y1="450.2" x2="752.8" y2="104.2" xlink:href="#Degradado_sin_nombre_19"/>
    <linearGradient id="Degradado_sin_nombre_19-4" data-name="Degradado sin nombre 19" x1="286.3" y1="559.8" x2="818.9" y2="213.8" xlink:href="#Degradado_sin_nombre_19"/>
    <linearGradient id="Degradado_sin_nombre_19-5" data-name="Degradado sin nombre 19" x1="324.2" y1="618.1" x2="856.8" y2="272.2" xlink:href="#Degradado_sin_nombre_19"/>
    <linearGradient id="Degradado_sin_nombre_12" data-name="Degradado sin nombre 12" x1="-631.3" y1="932.4" x2="-706.5" y2="937.7" gradientTransform="translate(2992.1 3287.6) rotate(-10.8) scale(3.2 -3.2)" gradientUnits="userSpaceOnUse">
      <stop offset="0" stop-color="#212cd7"/>
      <stop offset="1" stop-color="#9727fb"/>
    </linearGradient>
    <linearGradient id="Degradado_sin_nombre_2" data-name="Degradado sin nombre 2" x1="-623.7" y1="938" x2="-671.3" y2="938.3" gradientTransform="translate(2992.1 3287.6) rotate(-10.8) scale(3.2 -3.2)" gradientUnits="userSpaceOnUse">
      <stop offset="0" stop-color="#9600bb"/>
      <stop offset="1" stop-color="#df36e9"/>
    </linearGradient>
    <linearGradient id="Degradado_sin_nombre_3" data-name="Degradado sin nombre 3" x1="-648.9" y1="935.7" x2="-597.2" y2="937.3" gradientTransform="translate(2992.1 3287.6) rotate(-10.8) scale(3.2 -3.2)" gradientUnits="userSpaceOnUse">
      <stop offset="0" stop-color="#0098aa"/>
      <stop offset="1" stop-color="#35e7d9"/>
    </linearGradient>
    <linearGradient id="Degradado_sin_nombre_4" data-name="Degradado sin nombre 4" x1="-683.7" y1="904.2" x2="-654.3" y2="904.2" gradientTransform="translate(2992.1 3287.6) rotate(-10.8) scale(3.2 -3.2)" gradientUnits="userSpaceOnUse">
      <stop offset="0" stop-color="#007386"/>
      <stop offset="1" stop-color="#0194a5"/>
    </linearGradient>
    <linearGradient id="Degradado_sin_nombre_5" data-name="Degradado sin nombre 5" x1="-618.7" y1="933.6" x2="-681.1" y2="959.7" gradientTransform="translate(2992.1 3287.6) rotate(-10.8) scale(3.2 -3.2)" gradientUnits="userSpaceOnUse">
      <stop offset="0" stop-color="#0025ba"/>
      <stop offset="1" stop-color="#592aec"/>
    </linearGradient>
    <linearGradient id="Degradado_sin_nombre_6" data-name="Degradado sin nombre 6" x1="-683.7" y1="911.2" x2="-651" y2="910.7" gradientTransform="translate(2992.1 3287.6) rotate(-10.8) scale(3.2 -3.2)" gradientUnits="userSpaceOnUse">
      <stop offset="0" stop-color="#015a72"/>
      <stop offset="1" stop-color="#007b8f"/>
    </linearGradient>
    <linearGradient id="Degradado_sin_nombre_7" data-name="Degradado sin nombre 7" x1="-683.6" y1="977" x2="-653.8" y2="976.2" gradientTransform="translate(2992.1 3287.6) rotate(-10.8) scale(3.2 -3.2)" gradientUnits="userSpaceOnUse">
      <stop offset="0" stop-color="#017488"/>
      <stop offset="1" stop-color="#0097a6"/>
    </linearGradient>
    <linearGradient id="Degradado_sin_nombre_8" data-name="Degradado sin nombre 8" x1="-682.2" y1="963.3" x2="-652.9" y2="979" gradientTransform="translate(2992.1 3287.6) rotate(-10.8) scale(3.2 -3.2)" gradientUnits="userSpaceOnUse">
      <stop offset="0" stop-color="#00627b"/>
      <stop offset="1" stop-color="#008799"/>
    </linearGradient>
    <linearGradient id="Degradado_sin_nombre_9" data-name="Degradado sin nombre 9" x1="-705.6" y1="957.1" x2="-714.1" y2="957.1" gradientTransform="translate(2992.1 3287.6) rotate(-10.8) scale(3.2 -3.2)" gradientUnits="userSpaceOnUse">
      <stop offset="0" stop-color="#632bee"/>
      <stop offset="1" stop-color="#a726ff"/>
    </linearGradient>
    <linearGradient id="Degradado_sin_nombre_10" data-name="Degradado sin nombre 10" x1="-700.1" y1="894.8" x2="-706" y2="894.6" gradientTransform="translate(2992.1 3287.6) rotate(-10.8) scale(3.2 -3.2)" gradientUnits="userSpaceOnUse">
      <stop offset="0" stop-color="#612ced"/>
      <stop offset="1" stop-color="#a327ff"/>
    </linearGradient>
    <linearGradient id="Degradado_sin_nombre_11" data-name="Degradado sin nombre 11" x1="-700.3" y1="894.8" x2="-695.2" y2="894.8" gradientTransform="translate(2992.1 3287.6) rotate(-10.8) scale(3.2 -3.2)" gradientUnits="userSpaceOnUse">
      <stop offset="0" stop-color="#5b2ded"/>
      <stop offset="1" stop-color="#0f24cd"/>
    </linearGradient>
    <linearGradient id="Degradado_sin_nombre_5-2" data-name="Degradado sin nombre 5" x1="344.3" y1="527.3" x2="385.9" y2="527.3" gradientTransform="matrix(1,0,0,1,0,0)" xlink:href="#Degradado_sin_nombre_5"/>
    <linearGradient id="Degradado_sin_nombre_2-2" data-name="Degradado sin nombre 2" x1="422.3" y1="579.8" x2="483.2" y2="579.8" gradientTransform="matrix(1,0,0,1,0,0)" xlink:href="#Degradado_sin_nombre_2"/>
    <linearGradient id="Degradado_sin_nombre_3-2" data-name="Degradado sin nombre 3" x1="401" y1="530.4" x2="433.6" y2="530.4" gradientTransform="matrix(1,0,0,1,0,0)" xlink:href="#Degradado_sin_nombre_3"/>
  </defs>
  <!-- Generator: Adobe Illustrator 28.6.0, SVG Export Plug-In . SVG Version: 1.2.0 Build 709)  -->
  <g>
    <g id="Capa_1">
      <g>
        <path class="cls-5" d="M965.2,472.5c-9.1-10-18-21-26.6-31.6-4.1-5.1-8.4-10.3-12.6-15.5-5.6-6.7-11.4-13.5-16.9-20-5.8-6.7-11.7-13.6-17.4-20.6.4-.7.9-1.4,1.3-2.1,61.6-95.7,66.9-106.9,68-113.1,1.2-6.9-2.5-13.7-9-16.4-1-.5-3.5-1.7-7.1-1.7s-1.6,0-2,.1c-18.1.9-36.2,2.6-53.8,4.4-2.9.3-5.8.6-8.7.9-4.6.4-8.7,3-11.2,6.8-8.2,12.9-16.4,26-24.3,39.1-1.6,2.7-3.3,5.5-4.8,8.2-.5.9-1.1,1.9-1.6,2.8-8.4-10.2-16.6-20.8-24.5-31.1-4.2-5.4-8.5-10.9-12.7-16.4-2.9-3.7-7.3-5.7-11.8-5.7-1.2,0-2.4.1-3.6.4-23.6,5.8-47.8,10.6-71.9,14.4-1.1-2-2.5-3.9-4.5-5.8-2.4-2.3-5.5-3.8-8.8-4.1-1.2-.1-2.5-.2-4.1-.2s-2.6,0-3.9.3c-5.8.6-11.9,1.1-17.7,1.6-18.6,1.7-37.8,3.4-56.5,6.7-7.6,1.4-13,8.3-12.3,16l11.8,142,1.1,14.5c-1.6-.5-3.2-.8-4.9-.8s-.8,0-1.2,0c-22.4,1.8-45.1,4-67.4,6.7-3.3.4-6.7.8-9.9,1.2-4,.5-8,1-11.8,1.4-1-18.6-2.7-49.6-4.6-79.8-1.4-23.3-2.8-43.1-3.8-57.2-2.2-28.8-2.8-29.9-4.4-33-1.5-2.9-3.9-5.2-6.8-6.6-3.1-1.5-6.3-2.2-9.7-2.2h0c-1.3,0-2.4.1-3.3.2-.3,0-.6,0-.9,0-.1,0-.2,0-.3,0-8.3.8-16.7,1.9-24.8,2.9-13.6,1.7-26.4,3.3-39.2,3.9-1.5,0-3,.4-4.5.9-.5-1.1-1.1-2.1-1.6-3-2.1-3.3-5.4-5.6-9.3-6.5-1.3-.3-3.4-.7-5.9-.7s-2.7.1-4.2.4l-108.2,12.5c-5.9.7-11.9,1.4-17.7,2.2-16.8,2.1-34.1,4.3-51.1,5.4-4,.3-7.8,2.1-10.4,5.2-2.6,3.1-3.9,7-3.6,11l18.3,218.2c-10.8,1.7-17.3,6.9-21,11.4-5.2,6.4-7,13.2-7.8,19-1.2.5-2.5,1-3.7,1.5,0,0,0,0-.1,0-5.5,2.6-18.4,8.6-23.1,22-2.5,7.2-2,15,1.6,21.9,4.7,9.2,12.6,14.4,19.5,17.8-2.3,2.2-4.4,4.7-6,7.6-1.1,1.9-1.9,3.9-2.5,6-6.1-4.4-14-7-23.2-7.5-1,0-2,0-3,0-12.3,0-24.3,4.4-33.1,12-7.4,6.5-11.7,14.9-12.2,23.8-.5,7.8,2.3,15.5,7.8,21.5,4.9,5.5,11.4,9.2,19.1,11-10.8,5.9-22.7,14.7-27.4,27.7-2.5,7.1-2.1,14.7,1.1,21.2,4.4,9,13.3,15.7,26.5,20,0,0,0,0,.1,0,3.5,1.1,7.1,2,10.7,2.7,3.6.7,7.3,1.1,10.9,1.4,0,0,0,0,.1,0l9.6.5c4.9.3,10.2.5,15.6.5s3.3,0,4.9,0c-5.2,4.7-9.5,10-12,16.1-2.6,6.3-2.6,13.4,0,19.6,4.3,10.2,14.2,14,17.4,15.3,3.9,1.5,7.9,2.6,11.8,3.4-.4,0-.8,0-1.2,0-.8,0-1.6.1-2.3.2-.8.1-1.6.2-2.3.4-.7.2-1.5.3-2.2.6-.8.2-1.5.5-2.2.7-.8.3-1.5.6-2.2.9-.7.3-1.4.7-2.1,1-.5.2-.9.5-1.4.8-.4.3-.9.5-1.3.8-.4.3-.9.6-1.3.9-.4.3-.8.6-1.2.9-.4.3-.8.6-1.2,1-.4.3-.8.7-1.2,1.1-.4.3-.7.7-1.1,1.1-.3.4-.7.7-1,1.1-.3.4-.7.8-1,1.2-.3.4-.6.8-.9,1.2-.3.4-.6.8-.9,1.2-.3.5-.6.9-.8,1.3-.3.4-.5.9-.8,1.3-.2.5-.5.9-.7,1.4-.2.4-.4.9-.6,1.4-.2.5-.4,1-.6,1.5-.2.5-.3,1-.5,1.4-.2.5-.3,1-.4,1.5-.1.5-.3,1-.4,1.5-.1.5-.2,1-.3,1.5,0,.5-.2,1-.2,1.5,0,.5-.1,1-.2,1.6,0,.5,0,1,0,1.5,0,.5,0,1,0,1.5,0,.5,0,1,0,1.5,0,.5,0,1,.1,1.5,0,.5.1,1,.2,1.5,0,.5.2,1,.3,1.5.1.5.2,1,.3,1.5.1.5.3,1,.4,1.5.1.5.3,1,.5,1.5.2.5.4,1,.5,1.4.2.5.4,1,.6,1.4.2.4.4.9.7,1.4.2.5.5.9.7,1.3.2.4.5.9.8,1.3.3.4.6.9.8,1.3.3.4.6.8.9,1.3.3.4.6.8,1,1.2.3.4.7.8,1,1.1.3.4.7.7,1.1,1.1.4.4.8.7,1.1,1.1.4.3.8.7,1.1,1,.4.3.8.6,1.2,1,.4.3.8.6,1.2.9,0,0,0,0,0,0,.4.3.8.5,1.3.8.4.3.9.5,1.3.8.5.3.9.5,1.4.7.5.2.9.5,1.4.7.4.2.9.4,1.4.6.5.2,1,.4,1.5.5.5.2,1,.3,1.5.5.5.1,1,.3,1.4.4.5.1,1,.2,1.5.3.5,0,1,.2,1.5.2.5,0,1,.1,1.5.2.5,0,1,0,1.5.1.5,0,1,0,1.5,0h.1c.5,0,1,0,1.5,0,.5,0,1,0,1.5-.1.5,0,1,0,1.5-.2,0,0,0,0,0,0,.5,0,1-.1,1.5-.2.5,0,1-.2,1.5-.3.5-.1,1-.2,1.5-.4.8-.2,1.5-.5,2.3-.7.7-.3,1.5-.5,2.2-.9.7-.3,1.4-.6,2.1-1,.7-.4,1.4-.8,2-1.1.7-.4,1.3-.9,2-1.3.6-.5,1.3-.9,1.9-1.4.6-.5,1.2-1,1.8-1.6.6-.5,1.1-1.1,1.7-1.7.5-.6,1-1.2,1.5-1.8.5-.6,1-1.2,1.4-1.9.4-.7.9-1.3,1.3-2,.4-.7.8-1.4,1.1-2.1.3-.7.7-1.4,1-2.1.3-.7.6-1.5.8-2.2,0-.2.1-.4.2-.6,3.7,1.4,7.8,2.3,12.3,2.8.3,0,.7,0,1,0,1.2,0,2.3,0,3.2,0s.4,0,.5,0c3.3,5.2,9.5,13.4,21.1,16.1,2.4.6,4.8.8,7.4.8,20.1,0,40.6-18.2,51.5-28,1.2-1.1,2.3-2.2,3.5-3.2.7-.7,1.5-1.4,2.3-2.2,1.5,0,3.1.1,4.7.2,4.5.2,9.5.5,14.5.5,9.1,0,16-.9,21.7-2.8,5.8-1.9,10-5,13.1-7.2,12.3-8.7,23.6-23.2,32.7-34.9,1.2-1.6,2.4-3.1,3.6-4.6,0-.1.2-.2.2-.3l3.9-5.2c.1-.2.2-.3.4-.5,1.4-2.1,3.3-4.4,5.2-6.8,5.9-7.4,12.6-15.9,15.1-26.5,1.6-6.8.5-12.2-1.2-15.9,3.4-3,7-6.2,10.8-9.5,12.3-10.7,26.2-22.9,37.5-35,15.1-16.2,22.5-29.4,23.3-41.5.5-7.4-1.6-14.6-6-21.1,9-.7,18.6-1.7,28.3-2.9,1,11.9,1.7,23.9,2.3,35.6.3,6.1.7,12.5,1.1,18.8.6,9.5,1.3,19.1,2,28.3,1,13.5,2,27.5,2.7,41.2.2,4,2,7.8,5.1,10.5,2.7,2.4,6.3,3.7,9.9,3.7s.8,0,1.2,0l17.8-1.4c0,0,.1,0,.2,0,6.6-.6,13.4-1,20-1.5,9.6-.6,19.5-1.3,29.3-2.4,8-.9,13.9-8.1,13.2-16.1-1.9-23.3-3.3-47.1-4.6-70.1-1.2-21.3-2.5-43.2-4.2-65.1.2,0,.3,0,.5,0,13.4-1.3,27.2-2.7,40.6-3.3,4.6,8.5,9.1,17.2,13.8,26.1,1.9,3.7,3.9,7.5,5.9,11.2,3.8,7.3,7.7,14.7,11.5,22,14.7,28.1,29.9,57.2,45.8,85.2,2.7,4.7,7.7,7.6,13,7.6s1.6,0,2.4-.2c3.1-.5,6.2-1,9.4-1.6,14.8-2.5,30.1-5,45-6.6,5.5-.6,10.3-4.2,12.4-9.4,18.1-45.6,36.8-92.7,52.8-140.9,1.2-3.7,2.5-7.5,3.8-11.2,4.3-12.5,8.8-25.5,11.7-38.9,1.4-6.5-1.6-13.1-7.4-16.3l3.2-14.6c2.6,0,5.3-.9,7.6-2.4,14.9-9.6,29.7-21.8,44.1-36.1,5.7-5.7,5.9-14.8.5-20.7ZM944.9,266.5s0,0,0,0c0,0,0,0-.1,0,0,0,0,0,.1,0ZM226.2,829.2s0,0,0,.1c0,0,0,0-.1,0-.7-.4-1.4-.7-2.1-1-.7-.3-1.4-.6-2.2-.9-.3-.1-.6-.2-.9-.3.3,0,.7,0,1,.1,1.2.1,2.4.2,3.5.3.5,0,1,0,1.5.1-.2.6-.4,1.2-.6,1.7ZM696.5,280.3s0,0,.1,0c-.2,0-.5,0-.7,0,.2,0,.4,0,.6,0ZM694.4,280.5c-13.7,1.4-27.6,2.4-41.4,3.9,13.8-1.4,27.7-2.5,41.4-3.9ZM614,460.6c0,5,.3,10.1.7,15.2-.4-5.1-.6-10.2-.7-15.2h0ZM509.2,468.2c-.7-16.6-4-75.1-7-120.3,3,45.2,6.3,103.7,7,120.3ZM494.3,291s0,0,0,0c-.1,0-.3,0-.4,0,.1,0,.2,0,.3,0ZM491.3,291.3c-4,.4-8.1.8-12.1,1.3,4-.5,8.1-.9,12.1-1.3ZM443.1,296.9c-2.8.3-5.7.5-8.5.7,2.8-.2,5.7-.5,8.5-.7ZM428,313.4s0,0,0,0c-.5-5.1-1-10.2-1.5-15.4.5,5.1,1,10.2,1.5,15.4ZM413,314.5c0-.6-.2-1.2-.2-1.8,0,.6.2,1.2.2,1.8,0,0,0,0,0,0ZM411.3,303.2c-1.1-6.3-2.5-11.6-4.2-14.2,1.7,2.6,3,7.9,4.2,14.2ZM412.7,312.4c0-.4-.1-.8-.2-1.2,0,.4.1.8.2,1.2ZM412.4,310.4c0-.2,0-.3,0-.5,0,.2,0,.3,0,.5ZM412.1,308.1c-.1-.9-.3-1.8-.4-2.7.1.9.3,1.8.4,2.7ZM404.6,288.7s0,0,.1,0c0,0-.1,0-.2,0,0,0,0,0,0,0ZM566.1,624c1,8.4,1.7,16.8,2.3,25.2-.6-8.4-1.3-16.8-2.3-25.2ZM642.5,759c-3.1-37.2-4.7-74.6-7.1-111.9,2.5,37.3,4,74.6,7.1,111.9h0ZM914.5,434.9c9.9,11.9,19.4,24.2,29.5,36-10-11.8-19.6-24.1-29.5-36Z"/>
        <g>
          <path class="cls-3" d="M851.1,542.9c17.4,3.2,35.2,9.4,51.5,16.5-3.6,16.4-9.8,32.6-15.1,48.6-15.7,47.4-34.1,93.7-52.5,140.1-18.4,2-36.9,5.3-55.2,8.3-19.9-35-38.3-71.2-57.1-106.8-11.1-21.2-21.8-42.5-34.5-62.8.2,5.8.9,11.7,1.4,17.5-19,.9-38.1,3.1-57.1,4.9,4.5,49.9,5.9,100,10,149.9-16.2,1.9-32.7,2.4-48.9,3.8l-17.8,1.4c-1.2-23.2-3.3-46.5-4.7-69.7-1.5-23.5-2.3-47.1-5-70.5-16.9,2.9-34.6,4.5-51.8,5.8-2.4-17.3-4.2-35.1-5.3-52.5,22.2-2.3,44.5-4.2,66.7-6.9,36.4-4.3,72.8-9.4,109.3-13.4.5,4.9.7,9.9.9,14.9,17.7-8.1,35.8-15.4,53.4-23.7,23.1,41.9,45.8,84,68,126.5,14.7-43.8,31.3-87.1,43.9-131.6Z"/>
          <path class="cls-9" d="M944.3,266.6c1.1-.1.4-.2,1.9.5-1.5,8.5-64.9,106-73,118.8,13.4,16.7,27.7,32.7,41.3,49.1,13.2,15.9,25.8,32.4,39.7,47.6-12.6,12.6-26.6,24.5-41.6,34.1-21.4-29.2-46.1-56.9-69.8-84.1-13.4,24.6-29.5,47.8-43.6,72-16.7,2.4-33.7,2.7-50.5,4.7-6.5.4-13,.8-19.5,1,7.8-16.1,17.4-31.1,26.6-46.4,14.7-24.9,29.6-49.7,44.8-74.3-9.8-12-20.8-23.3-31.1-34.9-18.9-21-37.2-42.3-55.1-64.1,25.3-3.9,50.3-8.9,75.1-14.9,16.7,21.2,33,43.2,50.9,63.4,6.4-9.1,11.8-19.1,17.5-28.6,7.8-13,15.8-25.9,24-38.7,20.8-2,41.7-4.3,62.5-5.2Z"/>
          <path class="cls-19" d="M402.5,288.9c1.8-.3,2.8-.3,4.6.1,5.2,8.1,7.5,42.3,8.9,53.4-12.6.9-25.3,3.1-37.9,4.7-25.3,3.2-50.6,6.2-76,8.9.7,15.2,2,30.4,2.8,45.6,33.9-5.9,68.8-7.8,103-11.3,2.5,17.3,5.6,34.6,9.3,51.7-35.7,5.7-71.9,9.3-107.8,14.2.9,7.3,1.1,14.8,1.6,22.1,1.7,16.1,2.6,32.4,3.9,48.6l-72.1,3.5-18.6-221.2c23.3-1.5,46.4-4.9,69.5-7.6l108.6-12.6Z"/>
          <path class="cls-15" d="M491.3,291.3c2.5-.2,3.9-.6,6.2.5,2.3,4.4,11.2,160.7,11.9,179.1,12.5-.2,25.3-2.3,37.7-3.7,22.3-2.7,44.6-4.9,66.9-6.6.3,17.9,2.7,36.3,4.3,54.1-21.3,1.1-42.6,2.9-63.9,4.1-11.7,1.3-23.6,1.8-35.3,2.6-24.2,1.7-48.4,3.6-72.5,5.9-7.6-76.3-12.6-152.9-20.1-229.3,21.6-.9,43.3-4.7,64.8-6.8Z"/>
          <path class="cls-7" d="M694.4,280.5c1.6-.3,3-.2,4.6,0,1.5,1.5,2,2.2,2.3,4.3,1.1,7.9,1.2,16.1,1.8,24l4.1,52.3c3.6,46,8,92.1,10.5,138.2-24.2,2.4-48.3,5.5-72.4,9.5-.4,0-.7.1-1,.2-1.3.2-3.2.5-4.2-.5-1.1-1.1-1.6-2.5-1.8-4.1-.8-6.8-.9-14-1.4-20.9l-4.1-52.7-11.8-142c24.1-4.3,49.1-5.8,73.4-8.2Z"/>
        </g>
        <g>
          <path class="cls-26" d="M330.7,542.9c15.3,5.1,30.2,14.8,43.7,23.4,12.4,7.8,37.8,20.8,41.2,35.7.4,1.6.6,3.2.8,4.9,5.4.3,67.5,25.5,74.7,29.3,6.7,3.5,13.8,7.8,18.8,13.6,3.5,4,5.8,8.9,5.5,14.3-1.8,26.4-61.1,68.1-79.4,88.1,3.2.6,6.7,1.3,8.6,4.2,1.4,2.1,1.4,4.8.8,7.2-2.4,10.4-12.2,19.6-18.1,28.3l-3.9,5.2c-9.1,11.5-21.2,28-33.2,36.6-2.9,2.1-5.7,4-9.1,5.2-10.8,3.6-29.1,1.2-41,1.2,0,0-.1,0-.2.1-3.7,2.2-7.4,6.3-10.6,9.2-10.5,9.3-30.7,27.2-45.5,23.7-6.3-1.5-9.7-6.1-12.9-11.3-.9-1.5-2.3-5.4-3.7-6.1-3.6.9-7.6.9-11.3.8-2.9-.3-5.9-.9-8.6-1.9-19.9-7.9,0-23.9-5.3-35.7-1-2.3-2.7-3.7-5-4.6-4.2-1.7-9.1-1.6-13.5-2.1-7-.7-14-1.7-20.6-4.3-3.6-1.4-7.5-3.4-9-7.2-1.1-2.5-1-5.5,0-8,5.8-14.1,29-24.3,42.2-29.6,3.2-1.4,6.8-2.5,10.2-3.3,0-1.8-.6-3.8-1-5.6-.2-.7-.3-1.4-.7-2-.5-.6-6.5.3-7.6.4-21.2,2.1-43.2,4.3-64.4,2.8l-9.6-.6c-3.1-.2-6.1-.6-9.1-1.2-3-.6-6-1.3-8.9-2.3-6.6-2.1-14.4-5.8-17.7-12.3-1.5-3.1-1.5-6.4-.4-9.6,3.8-10.8,17.3-18.3,27-22.9,3.3-1.3,6.6-3.5,9.8-5.2,10.6-6.9,32.8-13.8,38.8-24.7,4.5-8.2-.3-15.8-2.6-23.7-1.5-5.1-2.3-10.9.5-15.8,3.9-6.9,13.3-10.4,20.6-12.5,18.5-4.9,36.1-12.6,53.4-20.6,3-2.5,7.9-4.1,11.4-6.2,12.3-7.2,26.9-16.2,36-27.3,1-.8,1.7-1.6,2.5-2.6,3.8-4.6,9-11.9,8.3-18.2-.2-2.3-1.3-4.4-1.5-6.7v-.3Z"/>
          <path class="cls-11" d="M374.4,566.3c12.4,7.8,37.8,20.8,41.2,35.7.4,1.6.6,3.2.8,4.9,5.4.3,67.5,25.5,74.7,29.3,6.7,3.5,13.8,7.8,18.8,13.6,3.5,4,5.8,8.9,5.5,14.3-1.8,26.4-61.1,68.1-79.4,88.1,3.2.6,6.7,1.3,8.6,4.2,1.4,2.1,1.4,4.8.8,7.2-2.4,10.4-12.2,19.6-18.1,28.3-1.9-2.3-2.7-5.1-5.1-7-10-8.2-27.8-.4-38.6-9.4-8.4-7-3.3-19.9-4.2-29.3-.7-7.2-4-13.7-9.6-18.4-21.6-17.7-71.7-11.7-98.1-9.1,3.2-1.3,6.7-1.3,9.7-2.7-.8-.2-1-.3-1.5-.9-.4-.5-.8-1-.8-1.7,0-1,.5-2.1.5-3.2.1-2.9-.3-5.9-1-8.8-2-9.2-3.9-18.5-5.3-27.8-.4-2.9-.5-5.8-.8-8.7-.6-4.8-1.7-8.7-1.2-13.6-2,.8-4.7,2-6.9,1.7,7.9-3.7,17.1-5.8,25.5-8.8,24.3-8.6,55.6-21.3,74.4-39.4,7.7-7.5,14.3-17.4,12.4-28.6-.5-3-2.4-7-2.2-9.9,0,0,0-.2,0-.3Z"/>
          <path class="cls-18" d="M416.4,606.9c5.4.3,67.5,25.5,74.7,29.3,6.7,3.5,13.8,7.8,18.8,13.6,3.5,4,5.8,8.9,5.5,14.3-1.8,26.4-61.1,68.1-79.4,88.1-4.1-.4-8.3.2-12.4-.6-2.3-.5-5-1.5-6.3-3.6-3.3-5.3,2.8-16,4-21.7.9-4.5,1-9.2-1.7-13.1-7.6-11.4-33.6-9.1-45.7-11.7-3.5-3.4-19.8-3.3-24-7.7-.5-.6-.4-1.2-.4-1.9l.4-.4.9,1.3.3-.2c0-.2,0-.3.1-.5.6-4-.7-10.5-3.1-13.7l-.6.9h-.5c-1.4-3,2.1-5.5,1.7-8.5-.2-1.4-.5-3.4-.4-4.7.5-4.1,13.8-8.1,15.8-12.8,9.6-6.4,20.5-10.9,30.2-17.5,10.9-7.4,19.4-15.6,21.9-28.9Z"/>
          <path class="cls-17" d="M374.1,701.5c-4.3-.4-8.7-1.4-12.9-2.4-7.6-1.8-19-5.1-23.3-12.3-1.5-2.5-1.8-5.4-1-8.3,3-10.9,18.3-20.1,27.6-25.2-2,4.7-15.3,8.6-15.8,12.8-.2,1.3.2,3.4.4,4.7.4,3-3.1,5.5-1.7,8.6h.5c0,0,.6-1,.6-1,2.4,3.2,3.7,9.7,3.1,13.7,0,.2,0,.4-.1.5l-.3.2-.9-1.3-.4.4c0,.7-.2,1.3.4,1.9,4.3,4.4,20.5,4.2,24,7.7Z"/>
          <path class="cls-8" d="M236,763.1c3.2-1.4,6.8-2.5,10.2-3.3l.4.5c.3.4.6,1.2,1.1,1.3,4.1.8,14.8-1.6,19.3-2.4,18.7-3.2,55.3-9,70.5,3.6-4.2,14.9-17.8,26.2-8.6,42.5,4.6,8.1,13.2,12,21.6,15.1,2.5.9,5.5,1.6,7.7,3.1-5.9,5.5-13,10.7-18.1,16.8,0,0-.1,0-.2.1-3.7,2.2-7.4,6.3-10.6,9.2-10.5,9.3-30.7,27.2-45.5,23.7-6.3-1.5-9.7-6.1-12.9-11.3-.9-1.5-2.3-5.4-3.7-6.1-3.6.9-7.6.9-11.3.8-2.9-.3-5.9-.9-8.6-1.9-19.9-7.9,0-23.9-5.3-35.7-1-2.3-2.7-3.7-5-4.6-4.2-1.7-9.1-1.6-13.5-2.1-7-.7-14-1.7-20.6-4.3-3.6-1.4-7.5-3.4-9-7.2-1.1-2.5-1-5.5,0-8,5.8-14.1,29-24.3,42.2-29.6Z"/>
          <path class="cls-21" d="M255.9,856.6c-2.9-.3-5.9-.9-8.6-1.9-19.9-7.9,0-23.9-5.3-35.7-1-2.3-2.7-3.7-5-4.6-4.2-1.7-9.1-1.6-13.5-2.1-7-.7-14-1.7-20.6-4.3-3.6-1.4-7.5-3.4-9-7.2-1.1-2.5-1-5.5,0-8,5.8-14.1,29-24.3,42.2-29.6,2.3,12.7,5,25.4,7.4,38.1,1.6,8.7,2.8,17.6,4.7,26.2,2.2,9.7,6.4,19.3,7.8,29.2Z"/>
          <path class="cls-14" d="M236,763.1c3.2-1.4,6.8-2.5,10.2-3.3l.4.5c4.4,24.8,8.8,49.8,14.3,74.4,1.6,7.2,5,14.1,6.4,21.2-3.6.9-7.6.9-11.3.8-1.4-9.9-5.6-19.4-7.8-29.2-1.9-8.6-3.1-17.5-4.7-26.2-2.4-12.7-5.1-25.4-7.4-38.1Z"/>
          <path class="cls-2" d="M330.7,542.9c15.3,5.1,30.2,14.8,43.7,23.4,0,.1,0,.2,0,.3-.1,2.9,1.7,6.9,2.2,9.9,1.9,11.3-4.7,21.2-12.4,28.6-18.8,18.1-50.1,30.9-74.4,39.4-8.3,2.9-17.5,5-25.5,8.8,2.2.3,4.9-1,6.9-1.7-.5,4.9.6,8.7,1.2,13.6.4,2.9.4,5.8.8,8.7,1.4,9.3,3.3,18.6,5.3,27.8.6,2.9,1.1,5.8,1,8.8,0,1.1-.5,2.1-.5,3.2,0,.7.4,1.2.8,1.7.5.6.7.7,1.5.9-3.1,1.4-6.5,1.4-9.7,2.7,26.4-2.6,76.6-8.7,98.1,9.1,5.7,4.7,8.9,11.1,9.6,18.4.9,9.3-4.3,22.3,4.2,29.3,10.8,9.1,28.6,1.2,38.6,9.4,2.4,2,3.2,4.8,5.1,7l-3.9,5.2c-1.1-1.1-2.5-1.3-3.9-2-14.2-7.5-33.7-1.2-45.1-14.3-11.4-13.1.4-32-9.4-43.5-2.5-3-5.7-4.1-9.2-5.6-22.8-9.4-61.4-5.7-85.6-3-9.6,1.1-20.4,4-30,3.3-8.6-.6-15.7-2.6-21.6-9.4-1.1-4.6-2.2-9.7-.7-14.4,3.6-11.6,20.7-17.2,30.3-22.3-1.9-3.4-3.8-6.9-5.5-10.5-2.4-5.1-3.3-10.5-1.2-15.9,6.1-15.8,25-18.1,39-23.1,7.2-2.6,14.8-5.2,21.8-8.2,1.6-.7,3.1-1.8,4.8-2.5l-.5-1v1.2c-3.9,1.6-27.2,11.3-29.9,10.6-1.1-9.5,1.8-11.9-2.9-21.6-.8-1.8-1.6-3.8-2.7-5.4-.8-1.3-2.2-1.2-3.6-1.6,1-.8,2.5-.6,3.7-.6.8-1.3,1.8-2.4,2.7-3.5,3-2.5,7.9-4.1,11.4-6.2,12.3-7.2,26.9-16.2,36-27.3,1-.8,1.7-1.6,2.5-2.6,3.8-4.6,9-11.9,8.3-18.2-.2-2.3-1.3-4.4-1.5-6.7v-.3Z"/>
          <path class="cls-16" d="M264.4,653.3c2.2.3,4.9-1,6.9-1.7-.5,4.9.6,8.7,1.2,13.6.4,2.9.4,5.8.8,8.7,1.4,9.3,3.3,18.6,5.3,27.8.6,2.9,1.1,5.8,1,8.8,0,1.1-.5,2.1-.5,3.2,0,.7.4,1.2.8,1.7.5.6.7.7,1.5.9-3.1,1.4-6.5,1.4-9.7,2.7-9.7,1-33.3,6-41.3,1.4-1.6-.9-2.8-2.3-3.2-4.1-2.9-11.9,28.2-17.8,32.6-26.5,2.9-5.8-6.2-14.3-8-20.1-.9-2.8-1.1-6,.4-8.7,2.1-3.7,8.2-6.4,12.2-7.6Z"/>
          <path class="cls-1" d="M245.1,754.2v-1.8c1.8-1.6,44.4-6.8,49.7-7.2,7.5-.5,14.9-.5,22.4,0,9.4.6,21.4,2.7,27.8,10.3,2.1,2.5,3,5.4,2.7,8.7-1,12.2-18,26.1-9.1,37.1,6.5,7.9,19.7,10.7,29.1,13.2-3,3-6.3,6.2-9.7,8.8-2.2-1.5-5.2-2.2-7.7-3.1-8.4-3-17-6.9-21.6-15.1-9.2-16.3,4.3-27.6,8.6-42.5-15.2-12.6-51.8-6.7-70.5-3.6-4.5.8-15.2,3.2-19.3,2.4-.5,0-.8-.9-1.1-1.3l-.4-.5c0-1.8-.6-3.8-1-5.6Z"/>
          <path class="cls-25" d="M153.7,706.6c3.3-1.3,6.6-3.5,9.8-5.2l.6.5c0,.1-.1.2-.2.3-.4.8-.6,2-.8,2.9,2,1,3.8,1.8,5.5,3.4.3,1.5.9,3.1.2,4.6l-.9.4c-1.2-.6-1.8-2.1-2.4-3.2-.3,1.3.1,3.2.8,4.4,1,1.7,3.3,2.1,4.2,4,2.2,4.8,3.4,18.4,3.4,23.9,0,2.2-.8,5.6-.4,7.7.1.5,1.3,2,1.7,2.5-.5,1.1-2.1,1.6-3,2.6l-9.6-.6c-3.1-.2-6.1-.6-9.1-1.2-3-.6-6-1.3-8.9-2.3-6.6-2.1-14.4-5.8-17.7-12.3-1.5-3.1-1.5-6.4-.4-9.6,3.8-10.8,17.3-18.3,27-22.9Z"/>
          <path class="cls-6" d="M162.7,754.9c-3.1-.2-6.1-.6-9.1-1.2-3-.6-6-1.3-8.9-2.3-6.6-2.1-14.4-5.8-17.7-12.3-1.5-3.1-1.5-6.4-.4-9.6,3.8-10.8,17.3-18.3,27-22.9v.4c-1.5,6.7-24.3,17.7-15.5,31.3,3.9,6,13.3,11.4,20.2,12.8,1.8.4,3.3.7,4.6,2,0,.6-.2,1.1-.2,1.7Z"/>
          <path class="cls-14" d="M367.8,814.5c6.7.7,14.9,3.7,19.3,9,3.6,4.4,1.4,5.5,2.8,9.6,0,.1,0,.3.1.4,0,0,0,.2,0,.3-2.9,2.1-5.7,4-9.1,5.2-10.8,3.6-29.1,1.2-41,1.2,5.1-6.1,12.2-11.3,18.1-16.8,3.4-2.6,6.6-5.8,9.7-8.8Z"/>
          <path class="cls-13" d="M212.7,570.5c.4-1.1.4-2.9.5-4.1.6-6.1,1-11.8,5.1-16.7,10.5-12.8,35.9-3.7,48.6.6,2.5.9,7.3,3.2,9.7,2.9,0,0,.1,0,.2,0,5.5-1.7,11-3.3,16.4-5.4,13.7-5.1,22.9-9.5,37.5-4.7v.3c.2,2.3,1.3,4.4,1.5,6.7.6,6.3-4.5,13.6-8.3,18.2-.8.9-1.6,1.8-2.5,2.6-9.1,11.1-23.7,20.1-36,27.3-3.5,2-8.3,3.7-11.4,6.2-17.3,8-34.9,15.7-53.4,20.6-.6-2.5-1.4-4.5-2.9-6.7-3.2-3.2-7.1-4.8-11.2-6.4-7.5-2.8-15.8-6.4-19.7-14-1.6-3.2-2-6.7-.8-10.1,2.4-6.7,9.2-10.6,15.3-13.4,3.6-1.7,7.4-2.7,11.2-3.8Z"/>
          <path class="cls-23" d="M310.3,566.2c3.6,1.3,7.9,2.5,11.1,4.6-9.1,11.1-23.7,20.1-36,27.3-3.5,2-8.3,3.7-11.4,6.2-17.3,8-34.9,15.7-53.4,20.6-.6-2.5-1.4-4.5-2.9-6.7.4-.8.6-1.6.8-2.4,5.2-4.1,15.7-5.9,22.1-8.2,19.5-7.1,47.9-20.5,63.5-34.5,2.3-2.1,4.1-4.5,6.1-6.8Z"/>
          <path class="cls-14" d="M276.8,553c5.5-1.7,11-3.3,16.4-5.4,13.7-5.1,22.9-9.5,37.5-4.7v.3c.2,2.3,1.3,4.4,1.5,6.7.6,6.3-4.5,13.6-8.3,18.2-.8.9-1.6,1.8-2.5,2.6-3.2-2.1-7.5-3.3-11.1-4.6-11.2-4.2-22.6-8.1-33.5-13.1Z"/>
          <path class="cls-21" d="M206.6,611.7c-7.5-2.8-15.8-6.4-19.7-14-1.6-3.2-2-6.7-.8-10.1,2.4-6.7,9.2-10.6,15.3-13.4.6,1.4,5.4,36.3,5.2,37.5Z"/>
          <path class="cls-14" d="M201.4,574.2c3.6-1.7,7.4-2.7,11.2-3.8.7,11.8,1.9,23,3.9,34.6.6,3.5,1,7.3,2,10.6-.2.8-.5,1.7-.8,2.4-3.2-3.2-7.1-4.8-11.2-6.4.3-1.2-4.5-36.1-5.2-37.5Z"/>
          <path class="cls-12" d="M168.6,679.2c-6.1,2.7-12.2,4.1-18.9,3.8-6.6-.3-13.2-2.3-17.7-7.3-2.6-2.9-4.2-6.7-3.9-10.6.3-5.2,3.3-10,7.2-13.4,6.7-5.9,16.5-8.8,25.3-8.2,6.4.3,13.5,2.2,18,7.1.3.4.7.8,1,1.2.3.4.6.8.8,1.3.3.4.5.9.7,1.3.2.5.4.9.6,1.4.2.5.3,1,.4,1.4.1.5.2,1,.3,1.5,0,.5.1,1,.1,1.5,0,.5,0,1,0,1.5-.3,5.4-3.6,10.2-7.7,13.6-1.9,1.6-4,2.8-6.1,4Z"/>
          <path class="cls-21" d="M168.6,679.2c-4.2.2-4.5.8-8.3,2.1-4-4.8-4.6-27-7-34.1-.4-1.2-.6-1.4-1.7-2l.2-.5c1.9-.9,5.2-.4,7.3-.2h.3s1-1.1,1-1.1c6.4.3,13.5,2.2,18,7.1.3.4.7.8,1,1.2.3.4.6.8.8,1.3.3.4.5.9.7,1.3.2.5.4.9.6,1.4.2.5.3,1,.4,1.4.1.5.2,1,.3,1.5,0,.5.1,1,.1,1.5,0,.5,0,1,0,1.5-.3,5.4-3.6,10.2-7.7,13.6-1.9,1.6-4,2.8-6.1,4Z"/>
          <path class="cls-20" d="M201.5,842.3c.4-.2.8-.4,1.2-.6s.8-.3,1.2-.5c.4-.1.8-.3,1.2-.4.4-.1.8-.2,1.3-.3.4,0,.8-.2,1.3-.2.4,0,.9-.1,1.3-.1.4,0,.9,0,1.3,0,.4,0,.9,0,1.3,0,.4,0,.9,0,1.3.1.4,0,.9.1,1.3.2.4,0,.8.2,1.3.3s.8.3,1.2.4c.4.1.8.3,1.2.5.4.2.8.4,1.2.6.4.2.8.4,1.1.7.4.2.7.5,1.1.7.3.3.7.5,1,.8.3.3.6.6,1,.9.3.3.6.6.9.9.3.3.6.7.8,1,.3.3.5.7.8,1.1.2.4.5.7.7,1.1.2.4.4.8.6,1.1.2.4.4.8.5,1.2.2.4.3.8.4,1.2.1.4.2.8.3,1.2.1.4.2.8.3,1.3,0,.4.1.9.2,1.3,0,.4,0,.9,0,1.3s0,.9,0,1.3c0,.4,0,.9,0,1.3,0,.4-.1.9-.2,1.3,0,.4-.2.8-.3,1.3-.1.4-.2.8-.4,1.2-.1.4-.3.8-.5,1.2-.2.4-.3.8-.5,1.2-.2.4-.4.8-.6,1.1-.2.4-.4.7-.7,1.1s-.5.7-.8,1c-.3.3-.5.7-.8,1-.3.3-.6.6-.9.9-.3.3-.6.6-1,.9-.3.3-.7.5-1,.8-.4.3-.7.5-1.1.7-.4.2-.7.4-1.1.6-.4.2-.8.4-1.2.6-.4.2-.8.3-1.2.5-.4.1-.8.3-1.2.4-.3,0-.5.1-.8.2-.3,0-.6.1-.8.2-.3,0-.6,0-.8.1-.3,0-.6,0-.8,0-.3,0-.6,0-.8,0-.3,0-.6,0-.8,0-.3,0-.6,0-.8,0-.3,0-.6,0-.8,0-.3,0-.6,0-.8-.1-.3,0-.6,0-.8-.1-.3,0-.6-.1-.8-.2-.3,0-.5-.1-.8-.2-.3,0-.5-.2-.8-.3-.3,0-.5-.2-.8-.3-.3-.1-.5-.2-.8-.3-.3-.1-.5-.2-.8-.4-.3-.1-.5-.3-.8-.4-.2-.1-.5-.3-.7-.4s-.5-.3-.7-.5c-.2-.2-.5-.3-.7-.5-.2-.2-.4-.3-.7-.5-.2-.2-.4-.4-.6-.6-.2-.2-.4-.4-.6-.6-.2-.2-.4-.4-.6-.6-.2-.2-.4-.4-.6-.6-.2-.2-.4-.4-.5-.7-.2-.2-.3-.5-.5-.7-.2-.2-.3-.5-.5-.7-.2-.2-.3-.5-.4-.7-.1-.2-.3-.5-.4-.7-.1-.3-.3-.5-.4-.8-.1-.3-.2-.5-.3-.8-.1-.3-.2-.5-.3-.8,0-.3-.2-.5-.3-.8,0-.3-.2-.5-.2-.8,0-.3-.1-.6-.2-.8s-.1-.6-.1-.8c0-.3,0-.6-.1-.8s0-.6,0-.8c0-.3,0-.6,0-.8,0-.3,0-.6,0-.8,0-.3,0-.6,0-.8,0-.3,0-.6,0-.8,0-.3,0-.6.1-.8,0-.3.1-.6.2-.8,0-.3.1-.6.2-.8s.2-.5.2-.8c0-.3.2-.5.3-.8,0-.3.2-.5.3-.8.1-.3.2-.5.3-.8.1-.3.2-.5.4-.8.1-.2.3-.5.4-.7.1-.2.3-.5.5-.7.2-.2.3-.5.5-.7.2-.2.3-.5.5-.7.2-.2.4-.4.5-.7.2-.2.4-.4.6-.6.2-.2.4-.4.6-.6.2-.2.4-.4.6-.6.2-.2.4-.4.7-.5.2-.2.4-.3.7-.5.2-.2.5-.3.7-.5.2-.2.5-.3.7-.4.2-.1.5-.3.7-.4Z"/>
          <path class="cls-4" d="M201.5,842.3c.4-.2.8-.4,1.2-.6s.8-.3,1.2-.5c.4-.1.8-.3,1.2-.4.4-.1.8-.2,1.3-.3.4,0,.8-.2,1.3-.2.4,0,.9-.1,1.3-.1.4,0,.9,0,1.3,0,.4,0,.9,0,1.3,0,.4,0,.9,0,1.3.1.4,0,.9.1,1.3.2.4,0,.8.2,1.3.3s.8.3,1.2.4c.4.1.8.3,1.2.5.4.2.8.4,1.2.6.4.2.8.4,1.1.7.4.2.7.5,1.1.7.3.3.7.5,1,.8.3.3.6.6,1,.9.3.3.6.6.9.9.3.3.6.7.8,1,.3.3.5.7.8,1.1.2.4.5.7.7,1.1.2.4.4.8.6,1.1.2.4.4.8.5,1.2.2.4.3.8.4,1.2.1.4.2.8.3,1.2.1.4.2.8.3,1.3,0,.4.1.9.2,1.3,0,.4,0,.9,0,1.3s0,.9,0,1.3c0,.4,0,.9,0,1.3,0,.4-.1.9-.2,1.3,0,.4-.2.8-.3,1.3-.1.4-.2.8-.4,1.2-.1.4-.3.8-.5,1.2-.2.4-.3.8-.5,1.2-.2.4-.4.8-.6,1.1-.2.4-.4.7-.7,1.1s-.5.7-.8,1c-.3.3-.5.7-.8,1-.3.3-.6.6-.9.9-.3.3-.6.6-1,.9-.3.3-.7.5-1,.8-.4.3-.7.5-1.1.7-.4.2-.7.4-1.1.6-.4.2-.8.4-1.2.6-.4.2-.8.3-1.2.5-.4.1-.8.3-1.2.4.1-.4.5-.9.5-1.2.2-1.1-2.5-8.8-2.9-10.6-1.7-7.6-1.4-16.8-4.5-24l-6.8,1.6Z"/>
          <path class="cls-22" d="M362.6,506.7c.3,0,.7,0,1,0,.3,0,.7,0,1,0,.3,0,.7,0,1,0,.3,0,.7,0,1,0,.3,0,.7,0,1,.1.3,0,.7,0,1,.2.3,0,.7.1,1,.2.3,0,.7.2,1,.2.3,0,.7.2,1,.3s.6.2,1,.3c.3.1.6.3.9.4.3.1.6.3.9.4.3.2.6.3.9.5.3.2.6.3.9.5.3.2.6.4.8.6.3.2.5.4.8.6.3.2.5.4.8.6.3.2.5.5.8.7.2.2.5.5.7.7.2.2.5.5.7.8.2.3.4.5.6.8.2.3.4.5.6.8.2.3.4.6.6.8.2.3.4.6.5.9.2.3.3.6.5.9.2.3.3.6.4.9.1.3.3.6.4.9.1.3.2.6.3,1,.1.3.2.6.3,1s.2.7.2,1c0,.3.1.7.2,1,0,.3.1.7.1,1,0,.3,0,.7.1,1,0,.3,0,.7,0,1s0,.7,0,1c0,.3,0,.7,0,1,0,.3,0,.7,0,1,0,.3,0,.7-.1,1,0,.3-.1.7-.2,1,0,.3-.2.7-.2,1,0,.3-.2.7-.3,1-.1.3-.2.6-.3,1-.1.3-.3.6-.4.9-.1.3-.3.6-.4.9-.2.3-.3.6-.5.9-.2.3-.3.6-.5.9-.2.3-.4.6-.6.8-.2.3-.4.6-.6.8-.2.3-.4.5-.6.8-.2.3-.4.5-.7.8-.2.2-.5.5-.7.7-.2.2-.5.5-.8.7-.3.2-.5.4-.8.6-.3.2-.5.4-.8.6-.3.2-.6.4-.8.6-.3.2-.6.4-.9.5-.3.2-.6.3-.9.5-.3.2-.6.3-.9.4-.3.1-.6.3-.9.4-.3.1-.6.2-1,.3-.3.1-.6.2-1,.3-.3,0-.7.2-1,.3-.3,0-.7.1-1,.2-.3,0-.7.1-1,.2-.3,0-.7,0-1,.1-.3,0-.7,0-1,0-.3,0-.7,0-1,0-.3,0-.7,0-1,0-.3,0-.7,0-1,0-.3,0-.7,0-1-.1-.3,0-.7-.1-1-.2-.3,0-.7-.2-1-.2-.3,0-.7-.2-1-.3-.3-.1-.6-.2-1-.3-.3-.1-.6-.3-.9-.4s-.6-.3-.9-.4c-.3-.2-.6-.3-.9-.5-.3-.2-.6-.3-.9-.5-.3-.2-.6-.4-.9-.6-.3-.2-.6-.4-.8-.6-.3-.2-.5-.4-.8-.6-.3-.2-.5-.5-.8-.7-.2-.2-.5-.5-.7-.7-.2-.2-.5-.5-.7-.8-.2-.3-.4-.5-.6-.8-.2-.3-.4-.5-.6-.8-.2-.3-.4-.6-.6-.8-.2-.3-.4-.6-.5-.9-.2-.3-.3-.6-.5-.9s-.3-.6-.4-.9c-.1-.3-.3-.6-.4-.9-.1-.3-.2-.6-.3-1-.1-.3-.2-.6-.3-1,0-.3-.2-.7-.2-1,0-.3-.1-.7-.2-1,0-.3-.1-.7-.2-1,0-.3,0-.7-.1-1,0-.3,0-.7,0-1,0-.3,0-.7,0-1,0-.3,0-.7,0-1,0-.3,0-.7.1-1,0-.3,0-.7.2-1,0-.3.1-.7.2-1,0-.3.2-.7.2-1,0-.3.2-.7.3-1,.1-.3.2-.6.3-1,.1-.3.3-.6.4-.9.1-.3.3-.6.4-.9.2-.3.3-.6.5-.9.2-.3.3-.6.5-.9.2-.3.4-.6.6-.8.2-.3.4-.6.6-.8.2-.3.4-.5.6-.8s.5-.5.7-.8c.2-.2.5-.5.7-.7s.5-.5.8-.7c.3-.2.5-.4.8-.6.3-.2.5-.4.8-.6.3-.2.6-.4.9-.6.3-.2.6-.4.9-.5.3-.2.6-.3.9-.5.3-.2.6-.3.9-.4s.6-.3.9-.4c.3-.1.6-.2,1-.3.3-.1.7-.2,1-.3.3,0,.7-.2,1-.2.3,0,.7-.1,1-.2.3,0,.7-.1,1-.1Z"/>
          <path class="cls-24" d="M449.1,549.6c.5,0,1-.1,1.5-.1.5,0,1,0,1.5,0,.5,0,1,0,1.5,0,.5,0,1,0,1.5,0,.5,0,1,0,1.5.2.5,0,1,.1,1.5.2.5,0,1,.2,1.5.3.5.1,1,.2,1.4.4.5.1,1,.3,1.4.4s.9.3,1.4.5c.5.2.9.4,1.4.6.5.2.9.4,1.3.6.4.2.9.5,1.3.7.4.2.9.5,1.3.8.4.3.8.5,1.2.8.4.3.8.6,1.2.9.4.3.8.6,1.2.9.4.3.7.7,1.1,1,.4.3.7.7,1.1,1.1.3.4.7.7,1,1.1.3.4.6.8.9,1.2.3.4.6.8.9,1.2.3.4.6.8.8,1.2.3.4.5.8.8,1.3.2.4.5.9.7,1.3.2.4.4.9.6,1.3.2.5.4.9.6,1.4.2.5.3.9.5,1.4.2.5.3.9.4,1.4s.3,1,.4,1.4c.1.5.2,1,.3,1.5,0,.5.2,1,.2,1.5,0,.5.1,1,.1,1.5,0,.5,0,1,0,1.5s0,1,0,1.5c0,.5,0,1,0,1.5,0,.5,0,1-.1,1.5,0,.5-.1,1-.2,1.5,0,.5-.2,1-.3,1.5-.1.5-.2,1-.4,1.4-.1.5-.3,1-.4,1.4-.2.5-.3.9-.5,1.4-.2.5-.4.9-.6,1.4-.2.5-.4.9-.6,1.3-.2.4-.5.9-.7,1.3-.2.4-.5.9-.8,1.3-.3.4-.5.8-.8,1.2-.3.4-.6.8-.9,1.2-.3.4-.6.8-.9,1.2-.3.4-.7.7-1,1.1-.3.4-.7.7-1.1,1.1-.4.3-.7.7-1.1,1-.4.3-.8.6-1.2.9-.4.3-.8.6-1.2.9-.4.3-.8.6-1.2.8-.4.3-.8.5-1.3.8-.4.2-.9.5-1.3.7-.4.2-.9.4-1.3.6-.5.2-.9.4-1.4.6-.5.2-.9.3-1.4.5-.5.2-.9.3-1.4.4-.5.1-1,.3-1.4.4-.5.1-1,.2-1.5.3-.5,0-1,.2-1.5.2-.5,0-1,.1-1.5.2-.5,0-1,0-1.5,0-.5,0-1,0-1.5,0-.5,0-1,0-1.5,0-.5,0-1,0-1.5-.1-.5,0-1-.1-1.5-.2-.5,0-1-.2-1.5-.3-.5-.1-1-.2-1.5-.4-.5-.1-1-.3-1.4-.4-.5-.2-.9-.3-1.4-.5-.5-.2-.9-.4-1.4-.6s-.9-.4-1.4-.6c-.4-.2-.9-.5-1.3-.7-.4-.2-.9-.5-1.3-.8-.4-.3-.8-.5-1.2-.8-.4-.3-.8-.6-1.2-.9-.4-.3-.8-.6-1.2-.9-.4-.3-.7-.7-1.1-1-.4-.3-.7-.7-1.1-1.1-.3-.4-.7-.7-1-1.1-.3-.4-.6-.8-1-1.2-.3-.4-.6-.8-.9-1.2-.3-.4-.6-.8-.8-1.2-.3-.4-.5-.9-.8-1.3-.2-.4-.5-.9-.7-1.3s-.4-.9-.6-1.4c-.2-.5-.4-.9-.6-1.4-.2-.5-.3-.9-.5-1.4-.2-.5-.3-1-.4-1.4-.1-.5-.3-1-.4-1.5-.1-.5-.2-1-.3-1.5,0-.5-.2-1-.2-1.5,0-.5-.1-1-.1-1.5,0-.5,0-1,0-1.5,0-.5,0-1,0-1.5,0-.5,0-1,0-1.5,0-.5,0-1,.1-1.5,0-.5.1-1,.2-1.5,0-.5.2-1,.3-1.5.1-.5.2-1,.4-1.5.1-.5.3-1,.4-1.4.2-.5.3-.9.5-1.4.2-.5.4-.9.6-1.4.2-.5.4-.9.6-1.4.2-.4.5-.9.7-1.3.2-.4.5-.9.8-1.3.3-.4.5-.8.8-1.2.3-.4.6-.8.9-1.2.3-.4.6-.8,1-1.2s.7-.7,1-1.1c.3-.4.7-.7,1.1-1.1s.7-.7,1.1-1c.4-.3.8-.6,1.2-.9.4-.3.8-.6,1.2-.9.4-.3.8-.6,1.2-.8.4-.3.9-.5,1.3-.8.4-.2.9-.5,1.3-.7.4-.2.9-.4,1.4-.6s.9-.4,1.4-.6c.5-.2.9-.3,1.4-.5.5-.2,1-.3,1.4-.4.5-.1,1-.3,1.5-.4.5-.1,1-.2,1.5-.3.5,0,1-.2,1.5-.2Z"/>
          <path class="cls-10" d="M415.3,514.2c.3,0,.5,0,.8,0,.3,0,.5,0,.8,0,.3,0,.5,0,.8,0,.3,0,.5,0,.8,0,.3,0,.5,0,.8,0,.3,0,.5,0,.8.1.3,0,.5,0,.8.2.3,0,.5.1.8.2.3,0,.5.1.8.2s.5.2.8.3c.2,0,.5.2.7.3.2.1.5.2.7.3.2.1.5.2.7.4.2.1.5.3.7.4.2.1.4.3.7.4.2.2.4.3.6.5.2.2.4.3.6.5.2.2.4.4.6.5.2.2.4.4.6.6.2.2.4.4.5.6.2.2.3.4.5.6.2.2.3.4.5.6.2.2.3.4.4.7.1.2.3.5.4.7.1.2.3.5.4.7.1.2.2.5.3.7.1.2.2.5.3.7,0,.2.2.5.3.8,0,.3.2.5.2.8s.1.5.2.8c0,.3.1.5.2.8,0,.3,0,.5.1.8,0,.3,0,.5,0,.8,0,.3,0,.5,0,.8s0,.5,0,.8c0,.3,0,.5,0,.8,0,.3,0,.5,0,.8,0,.3,0,.5-.1.8,0,.3,0,.5-.2.8,0,.3-.1.5-.2.8,0,.3-.1.5-.2.8,0,.3-.2.5-.3.8,0,.2-.2.5-.3.7-.1.2-.2.5-.3.7-.1.2-.2.5-.4.7-.1.2-.3.5-.4.7-.1.2-.3.4-.4.7-.2.2-.3.4-.5.6-.2.2-.3.4-.5.6-.2.2-.4.4-.5.6-.2.2-.4.4-.6.6-.2.2-.4.4-.6.5-.2.2-.4.3-.6.5-.2.2-.4.3-.6.5-.2.2-.4.3-.7.4-.2.1-.5.3-.7.4-.2.1-.5.3-.7.4-.2.1-.5.2-.7.3-.2.1-.5.2-.7.3-.2,0-.5.2-.8.3-.3,0-.5.2-.8.2-.3,0-.5.1-.8.2-.3,0-.5.1-.8.2-.3,0-.5,0-.8.1-.3,0-.5,0-.8,0-.3,0-.5,0-.8,0-.3,0-.5,0-.8,0-.3,0-.5,0-.8,0-.3,0-.5,0-.8,0-.3,0-.5,0-.8-.1-.3,0-.5,0-.8-.2-.3,0-.5-.1-.8-.2-.3,0-.5-.1-.8-.2-.3,0-.5-.2-.8-.3-.2,0-.5-.2-.7-.3s-.5-.2-.7-.3c-.2-.1-.5-.2-.7-.4-.2-.1-.5-.3-.7-.4-.2-.1-.4-.3-.7-.4-.2-.2-.4-.3-.6-.5-.2-.2-.4-.3-.6-.5-.2-.2-.4-.4-.6-.5-.2-.2-.4-.4-.6-.6-.2-.2-.4-.4-.5-.6-.2-.2-.3-.4-.5-.6-.2-.2-.3-.4-.5-.6-.2-.2-.3-.4-.4-.7-.1-.2-.3-.5-.4-.7-.1-.2-.3-.5-.4-.7s-.2-.5-.3-.7c-.1-.2-.2-.5-.3-.7,0-.2-.2-.5-.3-.8,0-.3-.2-.5-.2-.8,0-.3-.1-.5-.2-.8,0-.3-.1-.5-.2-.8,0-.3,0-.5-.1-.8,0-.3,0-.5,0-.8,0-.3,0-.5,0-.8,0-.3,0-.5,0-.8,0-.3,0-.5,0-.8,0-.3,0-.5,0-.8,0-.3,0-.5.1-.8,0-.3,0-.5.2-.8,0-.3.1-.5.2-.8,0-.3.1-.5.2-.8,0-.3.2-.5.3-.8,0-.2.2-.5.3-.7.1-.2.2-.5.3-.7.1-.2.2-.5.4-.7.1-.2.3-.5.4-.7.1-.2.3-.4.4-.7.2-.2.3-.4.5-.6.2-.2.3-.4.5-.6s.4-.4.5-.6c.2-.2.4-.4.6-.6s.4-.4.6-.5c.2-.2.4-.3.6-.5.2-.2.4-.3.6-.5.2-.2.4-.3.7-.4.2-.1.5-.3.7-.4.2-.1.5-.3.7-.4.2-.1.5-.2.7-.3s.5-.2.7-.3c.2,0,.5-.2.8-.3.3,0,.5-.2.8-.2.3,0,.5-.1.8-.2.3,0,.5-.1.8-.2.3,0,.5,0,.8-.1Z"/>
        </g>
      </g>
    </g>
  </g>
</svg>